ENGLISH SUBTITLES HARDCODED

Format                           : MPEG-4
Format profile                   : Base Media / Version 2
Codec ID                         : mp42
File size                        : 698 MiB
Duration                         : 2h 5mn
Overall bit rate                 : 781 Kbps
Encoded date                     : UTC 2010-10-11 21:01:15
Tagged date                      : UTC 2010-10-11 22:09:29
Writing application              : HandBrake 0.9.4 2009112300

Video
ID                               : 1
Format                           : AVC
Format/Info                      : Advanced Video Codec
Format profile                   : Main@L3.0
Format settings, CABAC           : Yes
Format settings, ReFrames        : 2 frames
Codec ID                         : avc1
Codec ID/Info                    : Advanced Video Coding
Duration                         : 2h 5mn
Bit rate mode                    : Variable
Bit rate                         : 619 Kbps
Width                            : 720 pixels
Height                           : 304 pixels
Display aspect ratio             : 2.35:1
Frame rate mode                  : Variable
Frame rate                       : 24.000 fps
Minimum frame rate               : 12.000 fps
Maximum frame rate               : 24.000 fps
Resolution                       : 24 bits
Colorimetry                      : 4:2:0
Scan type                        : Progressive
Bits/(Pixel*Frame)               : 0.118
Stream size                      : 552 MiB (79%)
Writing library                  : x264 core 79
Encoding settings                : cabac=1 / ref=2 / deblock=1:0:0 / 
Encoded date                     : UTC 2010-10-11 21:01:15
Tagged date                      : UTC 2010-10-11 22:09:29
colour_primaries                 : BT.601-6 525, BT.1358 525, BT.1700 NTSC, SMPTE 170M
transfer_characteristics         : BT.709-5, BT.1361
matrix_coefficients              : BT.601-6 525, BT.1358 525, BT.1700 

Audio
ID                               : 2
Format                           : AAC
Format/Info                      : Advanced Audio Codec
Format version                   : Version 4
Format profile                   : LC
Format settings, SBR             : No
Codec ID                         : 40
Duration                         : 2h 5mn
Bit rate mode                    : Variable
Bit rate                         : 160 Kbps
Maximum bit rate                 : 235 Kbps
Channel(s)                       : 2 channels
Channel positions                : L R
Sampling rate                    : 48.0 KHz
Resolution                       : 16 bits
Stream size                      : 143 MiB (20%)
Encoded date                     : UTC 2010-10-11 21:01:15
Tagged date                      : UTC 2010-10-11 22:09:29

Confucius (Chinese: å­”å­) is a 2010 Chinese biographical film directed by Hu Mei, starring Chow Yun-fat as the titular Chinese philosopher.

Production on the film began in March 2009 with shooting on location in China's Hebei province and in Hengdian World Studios in Zhejiang.[2]

The film was scheduled to screen later in 2009 to commemorate the 60th anniversary of the founding of the People's Republic of China, as well as the 2,560th birthday of Confucius himself.[2] However, the release date was later moved to January 2010.
 
http://www.imdb.com/title/tt1397498/

screen shots
 
http://img821.imageshack.us/img821/2237/confuciush264vicem4vsna.jpg 
http://img259.imageshack.us/img259/2237/confuciush264vicem4vsna.jpg 
http://img715.imageshack.us/img715/2237/confuciush264vicem4vsna.jpg 
http://img186.imageshack.us/img186/2237/confuciush264vicem4vsna.jpg
 
http://img714.imageshack.us/img714/9185/confuciush264vicem4vthu.jpg